<svg width="800" height="800" viewBox="0 0 800 800" fill="none" xmlns="http://www.w3.org/2000/svg">
<path d="M491.887 87.3815C552.84 26.4282 651.667 26.4282 712.62 87.3815C773.573 148.335 773.573 247.159 712.62 308.113L396.443 624.29C378.38 642.353 367.743 652.99 355.913 662.217C341.973 673.09 326.885 682.417 310.922 690.023C297.379 696.477 283.111 701.233 258.874 709.31L147.837 746.323L121.101 755.236C99.4157 762.463 75.5073 756.82 59.344 740.656C43.1807 724.493 37.5367 700.583 44.7653 678.9L90.6893 541.126C98.7677 516.89 103.523 502.623 109.977 489.08C117.585 473.116 126.909 458.03 137.785 444.086C147.012 432.256 157.646 421.623 175.712 403.556L491.887 87.3815ZM146.684 694.003L241.401 662.43C267.771 653.64 278.976 649.86 289.411 644.886C302.096 638.843 314.084 631.433 325.164 622.79C334.28 615.68 342.67 607.35 362.327 587.693L614.643 335.38C588.353 326.107 554.487 308.921 522.783 277.217C491.08 245.512 473.893 211.646 464.623 185.358L212.306 437.673C192.65 457.33 184.32 465.72 177.21 474.836C168.568 485.916 161.159 497.903 155.114 510.59C150.14 521.023 146.36 532.23 137.57 558.6L105.997 653.317L146.684 694.003ZM505.18 144.801C506.32 150.633 508.247 158.561 511.46 167.829C518.7 188.694 532.373 216.096 558.14 241.861C583.903 267.627 611.307 281.301 632.17 288.54C641.44 291.755 649.367 293.682 655.2 294.822L677.263 272.757C718.69 231.33 718.69 164.164 677.263 122.737C635.837 81.3098 568.67 81.3098 527.243 122.737L505.18 144.801Z" fill="white"/>
<rect x="46.0912" y="100.091" width="76.3671" height="924.767" transform="rotate(-45 46.0912 100.091)" fill="white"/>
</svg>
